<svg width="200" height="200" viewBox="0 0 160 160" xmlns="http://www.w3.org/2000/svg"><g fill="none" fill-rule="evenodd"><path fill="#FFFFFF" d="M53.22 79.024l26.857-42.206 26.858 42.206L80.077 94.37z"></path><path fill="#FFFFFF" d="M53.22 86.232l26.857 15.348 26.858-15.348-26.858 36.45z"></path><path d="M92.291 19.697a126.068 126.068 0 00-12.166 6.51 118.993 118.993 0 00-12.267-6.54A141.574 141.574 0 0180.034 12.3a145.7 145.7 0 0112.257 7.397z" fill="#5F9A34"></path><path d="M149.64 10.187C134.896-4.555 108.03-2.794 80.033 12.3a145.7 145.7 0 0112.257 7.397c10.838-5.012 21.162-7.699 29.907-7.699 7.819 0 14.38 2.144 18.928 6.692 9.65 9.65 8.503 28.327-.996 48.846a147.851 147.851 0 017.396 12.256c15.095-27.995 16.856-54.863 2.113-69.605z" fill="#FFC750"></path><path d="M92.291 19.697a126.068 126.068 0 00-12.166 6.51 164.433 164.433 0 0153.464 53.545 128.481 128.481 0 006.54-12.216 176.315 176.315 0 00-21.644-26.194A174.674 174.674 0 0092.29 19.697z" fill="#FFC750"></path><path d="M147.526 79.792A144.929 144.929 0 01140.14 92a126.744 126.744 0 00-6.55-12.247 128.483 128.483 0 006.54-12.216 147.781 147.781 0 017.396 12.256z" fill="#FF512F"></path><path d="M140.14 91.998a126.74 126.74 0 00-6.55-12.246 159.404 159.404 0 01-23.618 29.897 159.245 159.245 0 01-29.847 23.638 121.878 121.878 0 0012.166 6.51 174.676 174.676 0 0026.194-21.645 175.82 175.82 0 0021.655-26.154z" fill="#FF6895"></path><path d="M156.15 99.978a116.444 116.444 0 00-8.624-20.186 144.963 144.963 0 01-7.386 12.206c9.49 20.509 10.637 39.165.986 48.805-9.65 9.65-28.317 8.494-48.835-1.006-.845.574-1.69 1.127-2.536 1.67a140.771 140.771 0 01-9.72 5.726c14.903 8.04 29.484 12.297 42.093 12.297 11.069 0 20.619-3.28 27.512-10.173 10.787-10.788 13.091-28.307 6.51-49.339z" fill="#FF6895"></path><path d="M92.291 139.797c-.845.574-1.69 1.127-2.536 1.67a140.771 140.771 0 01-9.72 5.726 144.154 144.154 0 01-12.177-7.366 118.997 118.997 0 0012.267-6.54c3.93 2.398 7.991 4.571 12.166 6.51z" fill="#552990"></path><path d="M56.246 144.336c-16.544 5.182-29.766 3.924-37.223-3.533-7.457-7.456-8.714-20.679-3.532-37.222a97.8 97.8 0 014.498-11.603 146.904 146.904 0 01-7.366-12.176A116.3 116.3 0 004.01 99.978c-6.59 21.032-4.276 38.551 6.5 49.339 6.763 6.752 16.162 10.183 27.412 10.183a73.686 73.686 0 0021.917-3.683 116.548 116.548 0 0020.196-8.624 144.154 144.154 0 01-12.176-7.366 96.972 96.972 0 01-11.612 4.509z" fill="#5666F6"></path><path d="M67.858 139.827a118.997 118.997 0 0012.267-6.54 159.065 159.065 0 01-29.947-23.638A159.07 159.07 0 0126.54 79.702a121.245 121.245 0 00-6.55 12.276 176.217 176.217 0 0021.685 26.174 174.47 174.47 0 0026.183 21.675z" fill="#5666F6"></path><path d="M26.54 79.702a121.245 121.245 0 00-6.55 12.276 146.904 146.904 0 01-7.367-12.176 144.384 144.384 0 017.407-12.266 121.853 121.853 0 006.51 12.166z" fill="#204FA0"></path><path d="M19.023 18.69c7.457-7.456 20.68-8.714 37.223-3.522a98.61 98.61 0 0111.612 4.498A141.574 141.574 0 0180.034 12.3a115.756 115.756 0 00-20.196-8.624C38.817-2.904 21.298-.6 10.51 10.187 3.617 17.08.336 26.63.336 37.7c0 12.609 4.257 27.2 12.287 42.103a144.384 144.384 0 017.407-12.266C10.53 47.017 9.373 28.34 19.023 18.69z" fill="#5FC5A6"></path><path d="M67.858 19.666a180.347 180.347 0 00-47.828 47.87 121.853 121.853 0 006.51 12.166 164.26 164.26 0 0153.585-53.495 118.993 118.993 0 00-12.267-6.54z" fill="#5FC5A6"></path>></g></svg>
